{"title":"Inception 2010 TSRip New Audio H264~thepunisher65~","uid":5736584,"size":661489847,"categoryP":"other","categoryS":"other","magnet":"?xt=urn:btih:35352c4674245d553e256fd4b178befba5f92078&amp;dn=Inception+2010+TSRip+New+Audio+H264%7Ethepunisher65%7E&amp;tr=udp%3A%2F%2Ftracker.openbittorrent.com%3A80&amp;tr=udp%3A%2F%2Fopen.demonii.com%3A1337&amp;tr=udp%3A%2F%2Ftracker.coppersurfer.tk%3A6969&amp;tr=udp%3A%2F%2Fexodus.desync.com%3A6969","seeders":0,"leechers":1,"uploader":"thepunisher65","files":2,"time":1280794241,"description":"Format : AVI\n      Format/Info : Audio Video Interleave\n      File size : 631 MiB\n      Duration : 2h 19mn\n      Overall bit rate : 631 Kbps\n      Writing library : Handbrake 0.9.4\n   Video #0\n      ID : 0\n      Format : MPEG-4 Visual\n      Format profile : AdvancedSimple@L5\n      Format settings, BVOP : Yes\n      Format settings, QPel : No\n      Format settings, GMC : No warppoints\n      Format settings, Matrix : Default (H.263)\n      Codec ID : XVID\n      Codec ID/Hint : XviD\n      Duration : 2h 19mn\n      Bit rate : 493 Kbps\n      Width : 602 pixels\n      Height : 256 pixels\n      Display aspect ratio : 2.35:1\n      Frame rate : 25.000 fps\n      Resolution : 24 bits\n      Colorimetry : 4:2:0\n      Scan type : Progressive\n      Bits/(Pixel*Frame) : 0.128\n      Stream size : 493 MiB (78%)\n      Writing library : XviD 1.2.1 (UTC 2008-12-04)\n   Audio #1\n      ID : 1\n      Format : MPEG Audio\n      Format version : Version 1\n      Format profile : Layer 3\n      Codec ID : 55\n      Codec ID/Hint : MP3\n      Duration : 2h 19mn\n      Bit rate mode : Constant\n      Bit rate : 128 Kbps\n      Channel(s) : 2 channels\n      Sampling rate : 44.1 KHz\n      Resolution : 16 bits\n      Stream size : 128 MiB (20%)\n\n &lt;a href=&quot;\nhttp://www.imdb.com/title/tt1375666/&quot; rel=&quot;nofollow&quot; target=&quot;_NEW&quot;&gt;\nhttp://www.imdb.com/title/tt1375666/&lt;/a&gt;\n\n &lt;a href=&quot;\nhttp://a.imageshack.us/img814/913/inception2010tsripnewau.jpg&quot; rel=&quot;nofollow&quot; target=&quot;_NEW&quot;&gt;\nhttp://a.imageshack.us/img814/913/inception2010tsripnewau.jpg&lt;/a&gt;\n\n &lt;a href=&quot;\nhttp://a.imageshack.us/img824/913/inception2010tsripnewau.jpg&quot; rel=&quot;nofollow&quot; target=&quot;_NEW&quot;&gt;\nhttp://a.imageshack.us/img824/913/inception2010tsripnewau.jpg&lt;/a&gt;\n\n &lt;a href=&quot;\nhttp://a.imageshack.us/img64/913/inception2010tsripnewau.jpg&quot; rel=&quot;nofollow&quot; target=&quot;_NEW&quot;&gt;\nhttp://a.imageshack.us/img64/913/inception2010tsripnewau.jpg&lt;/a&gt;\n\n &lt;a href=&quot;\nhttp://a.imageshack.us/img227/913/inception2010tsripnewau.jpg&quot; rel=&quot;nofollow&quot; target=&quot;_NEW&quot;&gt;\nhttp://a.imageshack.us/img227/913/inception2010tsripnewau.jpg&lt;/a&gt;","torrent":{"xt":"urn:btih:35352c4674245d553e256fd4b178befba5f92078","amp;dn":"Inception+2010+TSRip+New+Audio+H264%7Ethepunisher65%7E","amp;tr":["udp%3A%2F%2Ftracker.openbittorrent.com%3A80","udp%3A%2F%2Fopen.demonii.com%3A1337","udp%3A%2F%2Ftracker.coppersurfer.tk%3A6969","udp%3A%2F%2Fexodus.desync.com%3A6969"],"infoHash":"35352c4674245d553e256fd4b178befba5f92078","infoHashBuffer":{"type":"Buffer","data":[53,53,44,70,116,36,93,85,62,37,111,212,177,120,190,251,165,249,32,120]},"announce":[],"urlList":[]}}